<svg xmlns="http://www.w3.org/2000/svg" xmlns:xlink="http://www.w3.org/1999/xlink" width="500" zoomAndPan="magnify" viewBox="0 0 375 374.999991" height="500" preserveAspectRatio="xMidYMid meet" version="1.0"><rect x="-37.5" width="450" fill="#ffffff" y="-37.499999" height="449.999989" fill-opacity="1"/><rect x="-37.5" width="450" fill="#111827" y="-37.499999" height="449.999989" fill-opacity="1"/><path fill="#ffffff" d="M 0.25 64.402344 C 0.25 46.792969 14.527344 32.519531 32.136719 32.519531 L 343.023438 32.519531 C 360.636719 32.519531 374.910156 46.792969 374.910156 64.402344 L 374.910156 310.761719 C 374.910156 328.371094 360.636719 342.644531 343.023438 342.644531 L 32.136719 342.644531 C 14.527344 342.644531 0.25 328.371094 0.25 310.761719 Z M 0.25 64.402344 " fill-opacity="1" fill-rule="evenodd"/><path fill="#111827" d="M 233.210938 290.628906 C 230.90625 288.390625 230.851562 284.707031 233.085938 282.402344 L 330.777344 181.753906 C 333.015625 179.445312 336.695312 179.390625 339.003906 181.628906 L 351.742188 193.992188 C 354.046875 196.230469 354.101562 199.914062 351.863281 202.21875 L 254.175781 302.871094 C 251.9375 305.175781 248.253906 305.230469 245.945312 302.992188 Z M 233.210938 290.628906 " fill-opacity="1" fill-rule="evenodd"/><path fill="#111827" d="M 204.273438 228.828125 C 206.625 226.34375 210.542969 226.238281 213.027344 228.589844 L 267.425781 280.066406 C 269.910156 282.417969 270.019531 286.335938 267.667969 288.820312 L 254.679688 302.546875 C 252.328125 305.03125 248.40625 305.140625 245.921875 302.789062 L 191.523438 251.3125 C 189.042969 248.960938 188.933594 245.039062 191.285156 242.554688 Z M 204.273438 228.828125 " fill-opacity="1" fill-rule="evenodd"/><path fill="#111827" d="M 270.75 263.632812 C 262.796875 274.59375 248.113281 277.996094 237.949219 271.238281 C 237.492188 270.933594 237.046875 270.609375 236.617188 270.269531 L 245.726562 259.339844 C 249.253906 261.851562 255.078125 260.328125 258.738281 255.9375 C 258.792969 255.875 258.84375 255.8125 258.894531 255.746094 Z M 270.75 263.632812 " fill-opacity="1" fill-rule="evenodd"/><path fill="#111827" d="M 57.707031 88.390625 C 57.707031 84.464844 60.886719 81.28125 64.8125 81.28125 L 281.058594 81.28125 C 284.984375 81.28125 288.164062 84.464844 288.164062 88.390625 L 288.164062 116.820312 C 288.164062 120.746094 284.984375 123.929688 281.058594 123.929688 L 64.8125 123.929688 C 60.886719 123.929688 57.707031 120.746094 57.707031 116.820312 Z M 57.707031 88.390625 " fill-opacity="1" fill-rule="evenodd"/><path fill="#111827" d="M 57.707031 158.558594 C 57.707031 154.632812 60.886719 151.449219 64.8125 151.449219 L 215.234375 151.449219 C 219.160156 151.449219 222.34375 154.632812 222.34375 158.558594 L 222.34375 186.988281 C 222.34375 190.917969 219.160156 194.097656 215.234375 194.097656 L 64.8125 194.097656 C 60.886719 194.097656 57.707031 190.917969 57.707031 186.988281 Z M 57.707031 158.558594 " fill-opacity="1" fill-rule="evenodd"/><path fill="#111827" d="M 57.707031 229.851562 C 57.707031 225.925781 60.886719 222.746094 64.8125 222.746094 L 151.664062 222.746094 C 155.589844 222.746094 158.773438 225.925781 158.773438 229.851562 L 158.773438 258.285156 C 158.773438 262.210938 155.589844 265.394531 151.664062 265.394531 L 64.8125 265.394531 C 60.886719 265.394531 57.707031 262.210938 57.707031 258.285156 Z M 57.707031 229.851562 " fill-opacity="1" fill-rule="evenodd"/></svg>