<svg xmlns="http://www.w3.org/2000/svg" xmlns:xlink="http://www.w3.org/1999/xlink" width="2000" zoomAndPan="magnify" viewBox="0 0 1500 457.91998" height="600" preserveAspectRatio="xMidYMid meet" version="1.0"><defs><g/><clipPath id="4cb792494a"><path d="M 174.511719 111.269531 L 439.214844 111.269531 L 439.214844 330.980469 L 174.511719 330.980469 Z M 174.511719 111.269531 " clip-rule="nonzero"/></clipPath><clipPath id="27771802c1"><rect x="0" width="842" y="0" height="216"/></clipPath></defs><g clip-path="url(#4cb792494a)"><path fill="#19544c" d="M 174.6875 134.230469 C 174.6875 121.800781 184.765625 111.722656 197.195312 111.722656 L 416.644531 111.722656 C 429.074219 111.722656 439.152344 121.800781 439.152344 134.230469 L 439.152344 308.136719 C 439.152344 320.566406 429.074219 330.644531 416.644531 330.644531 L 197.195312 330.644531 C 184.765625 330.644531 174.6875 320.566406 174.6875 308.136719 Z M 174.6875 134.230469 " fill-opacity="1" fill-rule="evenodd"/></g><path fill="#71b59a" d="M 339.128906 293.925781 C 337.5 292.347656 337.460938 289.746094 339.042969 288.117188 L 408 217.070312 C 409.578125 215.441406 412.179688 215.402344 413.804688 216.980469 L 422.796875 225.710938 C 424.425781 227.289062 424.464844 229.890625 422.882812 231.515625 L 353.925781 302.566406 C 352.347656 304.195312 349.746094 304.230469 348.121094 302.652344 Z M 339.128906 293.925781 " fill-opacity="1" fill-rule="evenodd"/><path fill="#71b59a" d="M 318.703125 250.300781 C 320.363281 248.546875 323.128906 248.46875 324.882812 250.128906 L 363.28125 286.46875 C 365.035156 288.128906 365.109375 290.894531 363.449219 292.648438 L 354.285156 302.335938 C 352.625 304.089844 349.855469 304.167969 348.101562 302.507812 L 309.703125 266.171875 C 307.953125 264.511719 307.875 261.742188 309.535156 259.988281 Z M 318.703125 250.300781 " fill-opacity="1" fill-rule="evenodd"/><path fill="#71b59a" d="M 365.625 274.867188 C 360.011719 282.605469 349.648438 285.007812 342.476562 280.234375 C 342.152344 280.019531 341.835938 279.792969 341.53125 279.550781 L 347.960938 271.839844 C 350.453125 273.609375 354.566406 272.535156 357.148438 269.4375 C 357.1875 269.390625 357.222656 269.347656 357.257812 269.300781 Z M 365.625 274.867188 " fill-opacity="1" fill-rule="evenodd"/><path fill="#ffffff" d="M 215.246094 151.164062 C 215.246094 148.394531 217.488281 146.148438 220.261719 146.148438 L 372.902344 146.148438 C 375.675781 146.148438 377.921875 148.394531 377.921875 151.164062 L 377.921875 171.234375 C 377.921875 174.003906 375.675781 176.253906 372.902344 176.253906 L 220.261719 176.253906 C 217.488281 176.253906 215.246094 174.003906 215.246094 171.234375 Z M 215.246094 151.164062 " fill-opacity="1" fill-rule="evenodd"/><path fill="#ffffff" d="M 215.246094 200.695312 C 215.246094 197.925781 217.488281 195.679688 220.261719 195.679688 L 326.441406 195.679688 C 329.210938 195.679688 331.457031 197.925781 331.457031 200.695312 L 331.457031 220.765625 C 331.457031 223.539062 329.210938 225.785156 326.441406 225.785156 L 220.261719 225.785156 C 217.488281 225.785156 215.246094 223.539062 215.246094 220.765625 Z M 215.246094 200.695312 " fill-opacity="1" fill-rule="evenodd"/><path fill="#ffffff" d="M 215.246094 251.023438 C 215.246094 248.25 217.488281 246.003906 220.261719 246.003906 L 281.566406 246.003906 C 284.339844 246.003906 286.585938 248.25 286.585938 251.023438 L 286.585938 271.09375 C 286.585938 273.863281 284.339844 276.109375 281.566406 276.109375 L 220.261719 276.109375 C 217.488281 276.109375 215.246094 273.863281 215.246094 271.09375 Z M 215.246094 251.023438 " fill-opacity="1" fill-rule="evenodd"/><g transform="matrix(1, 0, 0, 1, 487, 117)"><g clip-path="url(#27771802c1)"><g fill="#111827" fill-opacity="1"><g transform="translate(0.802028, 171.303414)"><g><path d="M 16.640625 -123.984375 L 39.671875 -123.984375 L 39.671875 -19.484375 L 104.5 -19.484375 L 104.5 0 L 16.640625 0 Z M 16.640625 -123.984375 "/></g></g></g><g fill="#111827" fill-opacity="1"><g transform="translate(101.396132, 171.303414)"><g><path d="M 74.03125 1.765625 C 61.519531 1.765625 50.210938 -0.976562 40.109375 -6.46875 C 30.015625 -11.957031 22.101562 -19.539062 16.375 -29.21875 C 10.65625 -38.90625 7.796875 -49.828125 7.796875 -61.984375 C 7.796875 -74.148438 10.6875 -85.070312 16.46875 -94.75 C 22.257812 -104.4375 30.203125 -112.023438 40.296875 -117.515625 C 50.390625 -123.003906 61.691406 -125.75 74.203125 -125.75 C 84.359375 -125.75 93.628906 -123.976562 102.015625 -120.4375 C 110.398438 -116.894531 117.484375 -111.757812 123.265625 -105.03125 L 108.390625 -91.03125 C 99.421875 -100.71875 88.378906 -105.5625 75.265625 -105.5625 C 66.765625 -105.5625 59.148438 -103.703125 52.421875 -99.984375 C 45.691406 -96.265625 40.4375 -91.097656 36.65625 -84.484375 C 32.882812 -77.867188 31 -70.367188 31 -61.984375 C 31 -53.597656 32.882812 -46.097656 36.65625 -39.484375 C 40.4375 -32.878906 45.691406 -27.71875 52.421875 -24 C 59.148438 -20.28125 66.765625 -18.421875 75.265625 -18.421875 C 88.378906 -18.421875 99.421875 -23.320312 108.390625 -33.125 L 123.265625 -18.953125 C 117.484375 -12.222656 110.367188 -7.085938 101.921875 -3.546875 C 93.484375 -0.00390625 84.1875 1.765625 74.03125 1.765625 Z M 74.03125 1.765625 "/></g></g></g><g fill="#111827" fill-opacity="1"><g transform="translate(224.305149, 171.303414)"><g><path d="M 97.0625 -28.6875 L 35.0625 -28.6875 L 22.84375 0 L -0.890625 0 L 54.90625 -123.984375 L 77.578125 -123.984375 L 133.546875 0 L 109.453125 0 Z M 89.4375 -46.75 L 66.0625 -100.953125 L 42.859375 -46.75 Z M 89.4375 -46.75 "/></g></g></g><g fill="#111827" fill-opacity="1"><g transform="translate(353.7752, 171.303414)"><g/></g></g><g fill="#111827" fill-opacity="1"><g transform="translate(398.227836, 171.303414)"><g><path d="M 18.59375 -123.984375 L 70.84375 -123.984375 C 83.945312 -123.984375 95.578125 -121.382812 105.734375 -116.1875 C 115.890625 -110.988281 123.769531 -103.695312 129.375 -94.3125 C 134.988281 -84.925781 137.796875 -74.148438 137.796875 -61.984375 C 137.796875 -49.828125 134.988281 -39.050781 129.375 -29.65625 C 123.769531 -20.269531 115.890625 -12.976562 105.734375 -7.78125 C 95.578125 -2.59375 83.945312 0 70.84375 0 L 18.59375 0 Z M 69.78125 -15.40625 C 79.8125 -15.40625 88.632812 -17.351562 96.25 -21.25 C 103.875 -25.144531 109.75 -30.601562 113.875 -37.625 C 118.007812 -44.65625 120.078125 -52.773438 120.078125 -61.984375 C 120.078125 -71.191406 118.007812 -79.304688 113.875 -86.328125 C 109.75 -93.359375 103.875 -98.820312 96.25 -102.71875 C 88.632812 -106.613281 79.8125 -108.5625 69.78125 -108.5625 L 36.3125 -108.5625 L 36.3125 -15.40625 Z M 69.78125 -15.40625 "/></g></g></g><g fill="#111827" fill-opacity="1"><g transform="translate(541.326649, 171.303414)"><g><path d="M 100.953125 -46.40625 C 100.953125 -45.101562 100.832031 -43.390625 100.59375 -41.265625 L 24.4375 -41.265625 C 25.5 -33.003906 29.128906 -26.363281 35.328125 -21.34375 C 41.523438 -16.320312 49.234375 -13.8125 58.453125 -13.8125 C 69.660156 -13.8125 78.691406 -17.59375 85.546875 -25.15625 L 94.9375 -14.171875 C 90.6875 -9.210938 85.398438 -5.429688 79.078125 -2.828125 C 72.765625 -0.234375 65.710938 1.0625 57.921875 1.0625 C 47.992188 1.0625 39.191406 -0.972656 31.515625 -5.046875 C 23.847656 -9.117188 17.914062 -14.816406 13.71875 -22.140625 C 9.53125 -29.460938 7.4375 -37.726562 7.4375 -46.9375 C 7.4375 -56.03125 9.472656 -64.234375 13.546875 -71.546875 C 17.617188 -78.867188 23.226562 -84.566406 30.375 -88.640625 C 37.519531 -92.710938 45.578125 -94.75 54.546875 -94.75 C 63.523438 -94.75 71.523438 -92.710938 78.546875 -88.640625 C 85.578125 -84.566406 91.066406 -78.867188 95.015625 -71.546875 C 98.972656 -64.234375 100.953125 -55.851562 100.953125 -46.40625 Z M 54.546875 -80.40625 C 46.398438 -80.40625 39.582031 -77.925781 34.09375 -72.96875 C 28.601562 -68.007812 25.382812 -61.515625 24.4375 -53.484375 L 84.65625 -53.484375 C 83.707031 -61.398438 80.488281 -67.863281 75 -72.875 C 69.507812 -77.894531 62.691406 -80.40625 54.546875 -80.40625 Z M 54.546875 -80.40625 "/></g></g></g><g fill="#111827" fill-opacity="1"><g transform="translate(646.525485, 171.303414)"><g><path d="M 43.03125 1.0625 C 35.363281 1.0625 27.984375 0.03125 20.890625 -2.03125 C 13.804688 -4.101562 8.257812 -6.734375 4.25 -9.921875 L 11.328125 -23.375 C 15.460938 -20.425781 20.484375 -18.066406 26.390625 -16.296875 C 32.296875 -14.523438 38.257812 -13.640625 44.28125 -13.640625 C 59.15625 -13.640625 66.59375 -17.890625 66.59375 -26.390625 C 66.59375 -29.222656 65.585938 -31.460938 63.578125 -33.109375 C 61.578125 -34.765625 59.066406 -35.976562 56.046875 -36.75 C 53.035156 -37.519531 48.757812 -38.375 43.21875 -39.3125 C 35.65625 -40.5 29.484375 -41.859375 24.703125 -43.390625 C 19.921875 -44.921875 15.816406 -47.515625 12.390625 -51.171875 C 8.972656 -54.835938 7.265625 -59.976562 7.265625 -66.59375 C 7.265625 -75.09375 10.804688 -81.910156 17.890625 -87.046875 C 24.972656 -92.179688 34.476562 -94.75 46.40625 -94.75 C 52.664062 -94.75 58.921875 -93.984375 65.171875 -92.453125 C 71.429688 -90.921875 76.566406 -88.851562 80.578125 -86.25 L 73.328125 -72.796875 C 65.648438 -77.753906 56.613281 -80.234375 46.21875 -80.234375 C 39.019531 -80.234375 33.53125 -79.050781 29.75 -76.6875 C 25.976562 -74.320312 24.09375 -71.191406 24.09375 -67.296875 C 24.09375 -64.234375 25.15625 -61.816406 27.28125 -60.046875 C 29.40625 -58.273438 32.03125 -56.972656 35.15625 -56.140625 C 38.28125 -55.316406 42.675781 -54.375 48.34375 -53.3125 C 55.90625 -52.007812 62.015625 -50.617188 66.671875 -49.140625 C 71.335938 -47.671875 75.320312 -45.164062 78.625 -41.625 C 81.9375 -38.082031 83.59375 -33.125 83.59375 -26.75 C 83.59375 -18.238281 79.960938 -11.472656 72.703125 -6.453125 C 65.441406 -1.441406 55.550781 1.0625 43.03125 1.0625 Z M 43.03125 1.0625 "/></g></g></g><g fill="#111827" fill-opacity="1"><g transform="translate(732.065916, 171.303414)"><g><path d="M 52.59375 -43.75 L 33.125 -25.6875 L 33.125 0 L 16.109375 0 L 16.109375 -131.421875 L 33.125 -131.421875 L 33.125 -47.109375 L 84.296875 -93.875 L 104.84375 -93.875 L 65.359375 -55.078125 L 108.75 0 L 87.84375 0 Z M 52.59375 -43.75 "/></g></g></g></g></g></svg>