<svg xmlns="http://www.w3.org/2000/svg" xmlns:xlink="http://www.w3.org/1999/xlink" width="2000" zoomAndPan="magnify" viewBox="0 0 1500 457.91998" height="600" preserveAspectRatio="xMidYMid meet" version="1.0"><defs><g/><clipPath id="c17e1ba279"><rect x="0" width="842" y="0" height="216"/></clipPath><clipPath id="9682d2a4f6"><path d="M 174.511719 111.269531 L 439.214844 111.269531 L 439.214844 330.980469 L 174.511719 330.980469 Z M 174.511719 111.269531 " clip-rule="nonzero"/></clipPath></defs><g transform="matrix(1, 0, 0, 1, 487, 117)"><g clip-path="url(#c17e1ba279)"><g fill="#fdfdfd" fill-opacity="1"><g transform="translate(0.802028, 171.3034)"><g><path d="M 16.640625 -123.984375 L 39.671875 -123.984375 L 39.671875 -19.484375 L 104.5 -19.484375 L 104.5 0 L 16.640625 0 Z M 16.640625 -123.984375 "/></g></g></g><g fill="#fdfdfd" fill-opacity="1"><g transform="translate(101.396132, 171.3034)"><g><path d="M 74.03125 1.765625 C 61.519531 1.765625 50.210938 -0.976562 40.109375 -6.46875 C 30.015625 -11.957031 22.101562 -19.539062 16.375 -29.21875 C 10.65625 -38.90625 7.796875 -49.828125 7.796875 -61.984375 C 7.796875 -74.148438 10.6875 -85.070312 16.46875 -94.75 C 22.257812 -104.4375 30.203125 -112.023438 40.296875 -117.515625 C 50.390625 -123.003906 61.691406 -125.75 74.203125 -125.75 C 84.359375 -125.75 93.628906 -123.976562 102.015625 -120.4375 C 110.398438 -116.894531 117.484375 -111.757812 123.265625 -105.03125 L 108.390625 -91.03125 C 99.421875 -100.71875 88.378906 -105.5625 75.265625 -105.5625 C 66.765625 -105.5625 59.148438 -103.703125 52.421875 -99.984375 C 45.691406 -96.265625 40.4375 -91.097656 36.65625 -84.484375 C 32.882812 -77.867188 31 -70.367188 31 -61.984375 C 31 -53.597656 32.882812 -46.097656 36.65625 -39.484375 C 40.4375 -32.878906 45.691406 -27.71875 52.421875 -24 C 59.148438 -20.28125 66.765625 -18.421875 75.265625 -18.421875 C 88.378906 -18.421875 99.421875 -23.320312 108.390625 -33.125 L 123.265625 -18.953125 C 117.484375 -12.222656 110.367188 -7.085938 101.921875 -3.546875 C 93.484375 -0.00390625 84.1875 1.765625 74.03125 1.765625 Z M 74.03125 1.765625 "/></g></g></g><g fill="#fdfdfd" fill-opacity="1"><g transform="translate(224.305149, 171.3034)"><g><path d="M 97.0625 -28.6875 L 35.0625 -28.6875 L 22.84375 0 L -0.890625 0 L 54.90625 -123.984375 L 77.578125 -123.984375 L 133.546875 0 L 109.453125 0 Z M 89.4375 -46.75 L 66.0625 -100.953125 L 42.859375 -46.75 Z M 89.4375 -46.75 "/></g></g></g><g fill="#fdfdfd" fill-opacity="1"><g transform="translate(353.7752, 171.3034)"><g/></g></g><g fill="#fdfdfd" fill-opacity="1"><g transform="translate(398.227836, 171.3034)"><g><path d="M 18.59375 -123.984375 L 70.84375 -123.984375 C 83.945312 -123.984375 95.578125 -121.382812 105.734375 -116.1875 C 115.890625 -110.988281 123.769531 -103.695312 129.375 -94.3125 C 134.988281 -84.925781 137.796875 -74.148438 137.796875 -61.984375 C 137.796875 -49.828125 134.988281 -39.050781 129.375 -29.65625 C 123.769531 -20.269531 115.890625 -12.976562 105.734375 -7.78125 C 95.578125 -2.59375 83.945312 0 70.84375 0 L 18.59375 0 Z M 69.78125 -15.40625 C 79.8125 -15.40625 88.632812 -17.351562 96.25 -21.25 C 103.875 -25.144531 109.75 -30.601562 113.875 -37.625 C 118.007812 -44.65625 120.078125 -52.773438 120.078125 -61.984375 C 120.078125 -71.191406 118.007812 -79.304688 113.875 -86.328125 C 109.75 -93.359375 103.875 -98.820312 96.25 -102.71875 C 88.632812 -106.613281 79.8125 -108.5625 69.78125 -108.5625 L 36.3125 -108.5625 L 36.3125 -15.40625 Z M 69.78125 -15.40625 "/></g></g></g><g fill="#fdfdfd" fill-opacity="1"><g transform="translate(541.326649, 171.3034)"><g><path d="M 100.953125 -46.40625 C 100.953125 -45.101562 100.832031 -43.390625 100.59375 -41.265625 L 24.4375 -41.265625 C 25.5 -33.003906 29.128906 -26.363281 35.328125 -21.34375 C 41.523438 -16.320312 49.234375 -13.8125 58.453125 -13.8125 C 69.660156 -13.8125 78.691406 -17.59375 85.546875 -25.15625 L 94.9375 -14.171875 C 90.6875 -9.210938 85.398438 -5.429688 79.078125 -2.828125 C 72.765625 -0.234375 65.710938 1.0625 57.921875 1.0625 C 47.992188 1.0625 39.191406 -0.972656 31.515625 -5.046875 C 23.847656 -9.117188 17.914062 -14.816406 13.71875 -22.140625 C 9.53125 -29.460938 7.4375 -37.726562 7.4375 -46.9375 C 7.4375 -56.03125 9.472656 -64.234375 13.546875 -71.546875 C 17.617188 -78.867188 23.226562 -84.566406 30.375 -88.640625 C 37.519531 -92.710938 45.578125 -94.75 54.546875 -94.75 C 63.523438 -94.75 71.523438 -92.710938 78.546875 -88.640625 C 85.578125 -84.566406 91.066406 -78.867188 95.015625 -71.546875 C 98.972656 -64.234375 100.953125 -55.851562 100.953125 -46.40625 Z M 54.546875 -80.40625 C 46.398438 -80.40625 39.582031 -77.925781 34.09375 -72.96875 C 28.601562 -68.007812 25.382812 -61.515625 24.4375 -53.484375 L 84.65625 -53.484375 C 83.707031 -61.398438 80.488281 -67.863281 75 -72.875 C 69.507812 -77.894531 62.691406 -80.40625 54.546875 -80.40625 Z M 54.546875 -80.40625 "/></g></g></g><g fill="#fdfdfd" fill-opacity="1"><g transform="translate(646.525485, 171.3034)"><g><path d="M 43.03125 1.0625 C 35.363281 1.0625 27.984375 0.03125 20.890625 -2.03125 C 13.804688 -4.101562 8.257812 -6.734375 4.25 -9.921875 L 11.328125 -23.375 C 15.460938 -20.425781 20.484375 -18.066406 26.390625 -16.296875 C 32.296875 -14.523438 38.257812 -13.640625 44.28125 -13.640625 C 59.15625 -13.640625 66.59375 -17.890625 66.59375 -26.390625 C 66.59375 -29.222656 65.585938 -31.460938 63.578125 -33.109375 C 61.578125 -34.765625 59.066406 -35.976562 56.046875 -36.75 C 53.035156 -37.519531 48.757812 -38.375 43.21875 -39.3125 C 35.65625 -40.5 29.484375 -41.859375 24.703125 -43.390625 C 19.921875 -44.921875 15.816406 -47.515625 12.390625 -51.171875 C 8.972656 -54.835938 7.265625 -59.976562 7.265625 -66.59375 C 7.265625 -75.09375 10.804688 -81.910156 17.890625 -87.046875 C 24.972656 -92.179688 34.476562 -94.75 46.40625 -94.75 C 52.664062 -94.75 58.921875 -93.984375 65.171875 -92.453125 C 71.429688 -90.921875 76.566406 -88.851562 80.578125 -86.25 L 73.328125 -72.796875 C 65.648438 -77.753906 56.613281 -80.234375 46.21875 -80.234375 C 39.019531 -80.234375 33.53125 -79.050781 29.75 -76.6875 C 25.976562 -74.320312 24.09375 -71.191406 24.09375 -67.296875 C 24.09375 -64.234375 25.15625 -61.816406 27.28125 -60.046875 C 29.40625 -58.273438 32.03125 -56.972656 35.15625 -56.140625 C 38.28125 -55.316406 42.675781 -54.375 48.34375 -53.3125 C 55.90625 -52.007812 62.015625 -50.617188 66.671875 -49.140625 C 71.335938 -47.671875 75.320312 -45.164062 78.625 -41.625 C 81.9375 -38.082031 83.59375 -33.125 83.59375 -26.75 C 83.59375 -18.238281 79.960938 -11.472656 72.703125 -6.453125 C 65.441406 -1.441406 55.550781 1.0625 43.03125 1.0625 Z M 43.03125 1.0625 "/></g></g></g><g fill="#fdfdfd" fill-opacity="1"><g transform="translate(732.065916, 171.3034)"><g><path d="M 52.59375 -43.75 L 33.125 -25.6875 L 33.125 0 L 16.109375 0 L 16.109375 -131.421875 L 33.125 -131.421875 L 33.125 -47.109375 L 84.296875 -93.875 L 104.84375 -93.875 L 65.359375 -55.078125 L 108.75 0 L 87.84375 0 Z M 52.59375 -43.75 "/></g></g></g></g></g><g clip-path="url(#9682d2a4f6)"><path fill="#ffffff" d="M 174.6875 134.234375 C 174.6875 121.800781 184.765625 111.726562 197.199219 111.726562 L 416.667969 111.726562 C 429.097656 111.726562 439.175781 121.800781 439.175781 134.234375 L 439.175781 308.144531 C 439.175781 320.578125 429.097656 330.65625 416.667969 330.65625 L 197.199219 330.65625 C 184.765625 330.65625 174.6875 320.578125 174.6875 308.144531 Z M 174.6875 134.234375 " fill-opacity="1" fill-rule="evenodd"/></g><path fill="#111827" d="M 339.144531 293.933594 C 337.515625 292.355469 337.476562 289.753906 339.054688 288.128906 L 408.019531 217.074219 C 409.597656 215.445312 412.199219 215.40625 413.828125 216.988281 L 422.820312 225.714844 C 424.445312 227.296875 424.484375 229.894531 422.90625 231.523438 L 353.941406 302.574219 C 352.363281 304.203125 349.761719 304.242188 348.136719 302.664062 Z M 339.144531 293.933594 " fill-opacity="1" fill-rule="evenodd"/><path fill="#111827" d="M 318.714844 250.308594 C 320.375 248.554688 323.144531 248.476562 324.894531 250.136719 L 363.296875 286.476562 C 365.050781 288.136719 365.128906 290.90625 363.46875 292.65625 L 354.300781 302.347656 C 352.640625 304.101562 349.871094 304.179688 348.117188 302.519531 L 309.714844 266.179688 C 307.964844 264.519531 307.886719 261.75 309.546875 260 Z M 318.714844 250.308594 " fill-opacity="1" fill-rule="evenodd"/><path fill="#111827" d="M 365.644531 274.875 C 360.027344 282.613281 349.664062 285.015625 342.488281 280.246094 C 342.164062 280.03125 341.851562 279.800781 341.546875 279.5625 L 347.976562 271.847656 C 350.46875 273.617188 354.582031 272.542969 357.164062 269.445312 C 357.203125 269.398438 357.238281 269.355469 357.273438 269.308594 Z M 365.644531 274.875 " fill-opacity="1" fill-rule="evenodd"/><path fill="#111827" d="M 215.246094 151.167969 C 215.246094 148.394531 217.492188 146.148438 220.265625 146.148438 L 372.921875 146.148438 C 375.691406 146.148438 377.9375 148.394531 377.9375 151.167969 L 377.9375 171.238281 C 377.9375 174.007812 375.691406 176.253906 372.921875 176.253906 L 220.265625 176.253906 C 217.492188 176.253906 215.246094 174.007812 215.246094 171.238281 Z M 215.246094 151.167969 " fill-opacity="1" fill-rule="evenodd"/><path fill="#111827" d="M 215.246094 200.703125 C 215.246094 197.929688 217.492188 195.683594 220.265625 195.683594 L 326.453125 195.683594 C 329.226562 195.683594 331.472656 197.929688 331.472656 200.703125 L 331.472656 220.773438 C 331.472656 223.542969 329.226562 225.789062 326.453125 225.789062 L 220.265625 225.789062 C 217.492188 225.789062 215.246094 223.542969 215.246094 220.773438 Z M 215.246094 200.703125 " fill-opacity="1" fill-rule="evenodd"/><path fill="#111827" d="M 215.246094 251.03125 C 215.246094 248.257812 217.492188 246.011719 220.265625 246.011719 L 281.578125 246.011719 C 284.347656 246.011719 286.59375 248.257812 286.59375 251.03125 L 286.59375 271.101562 C 286.59375 273.875 284.347656 276.121094 281.578125 276.121094 L 220.265625 276.121094 C 217.492188 276.121094 215.246094 273.875 215.246094 271.101562 Z M 215.246094 251.03125 " fill-opacity="1" fill-rule="evenodd"/></svg>